<svg width="20" height="21" viewBox="0 0 20 21" fill="none" xmlns="http://www.w3.org/2000/svg">
<path d="M6.66699 5.29175C6.32533 5.29175 6.04199 5.00841 6.04199 4.66675V2.16675C6.04199 1.82508 6.32533 1.54175 6.66699 1.54175C7.00866 1.54175 7.29199 1.82508 7.29199 2.16675V4.66675C7.29199 5.00841 7.00866 5.29175 6.66699 5.29175Z" fill="#E75B00"/>
<path d="M13.333 5.29175C12.9913 5.29175 12.708 5.00841 12.708 4.66675V2.16675C12.708 1.82508 12.9913 1.54175 13.333 1.54175C13.6747 1.54175 13.958 1.82508 13.958 2.16675V4.66675C13.958 5.00841 13.6747 5.29175 13.333 5.29175Z" fill="#E75B00"/>
<path d="M7.08333 12.5834C6.975 12.5834 6.86667 12.5584 6.76667 12.5168C6.65833 12.4751 6.575 12.4168 6.49167 12.3418C6.34167 12.1834 6.25 11.9751 6.25 11.7501C6.25 11.6418 6.275 11.5334 6.31667 11.4334C6.35833 11.3334 6.41667 11.2418 6.49167 11.1584C6.575 11.0834 6.65833 11.0251 6.76667 10.9834C7.06667 10.8584 7.44167 10.9251 7.675 11.1584C7.825 11.3168 7.91667 11.5334 7.91667 11.7501C7.91667 11.8001 7.90833 11.8584 7.9 11.9168C7.89167 11.9668 7.875 12.0168 7.85 12.0668C7.83333 12.1168 7.80833 12.1668 7.775 12.2168C7.75 12.2584 7.70833 12.3001 7.675 12.3418C7.51667 12.4918 7.3 12.5834 7.08333 12.5834Z" fill="#E75B00"/>
<path d="M10.0003 12.5832C9.89199 12.5832 9.78366 12.5582 9.68366 12.5166C9.57532 12.4749 9.49199 12.4166 9.40866 12.3416C9.25866 12.1832 9.16699 11.9749 9.16699 11.7499C9.16699 11.6416 9.19199 11.5332 9.23366 11.4332C9.27533 11.3332 9.33366 11.2416 9.40866 11.1582C9.49199 11.0832 9.57532 11.0249 9.68366 10.9832C9.98366 10.8499 10.3587 10.9249 10.592 11.1582C10.742 11.3166 10.8337 11.5332 10.8337 11.7499C10.8337 11.7999 10.8253 11.8582 10.817 11.9166C10.8087 11.9666 10.792 12.0166 10.767 12.0666C10.7503 12.1166 10.7253 12.1666 10.692 12.2166C10.667 12.2582 10.6253 12.2999 10.592 12.3416C10.4337 12.4916 10.217 12.5832 10.0003 12.5832Z" fill="#E75B00"/>
<path d="M12.9163 12.5832C12.808 12.5832 12.6997 12.5582 12.5997 12.5166C12.4913 12.4749 12.408 12.4166 12.3247 12.3416C12.2913 12.2999 12.258 12.2582 12.2247 12.2166C12.1913 12.1666 12.1663 12.1166 12.1497 12.0666C12.1247 12.0166 12.108 11.9666 12.0997 11.9166C12.0913 11.8582 12.083 11.7999 12.083 11.7499C12.083 11.5332 12.1747 11.3166 12.3247 11.1582C12.408 11.0832 12.4913 11.0249 12.5997 10.9832C12.908 10.8499 13.2747 10.9249 13.508 11.1582C13.658 11.3166 13.7497 11.5332 13.7497 11.7499C13.7497 11.7999 13.7413 11.8582 13.733 11.9166C13.7247 11.9666 13.708 12.0166 13.683 12.0666C13.6663 12.1166 13.6413 12.1666 13.608 12.2166C13.583 12.2582 13.5413 12.2999 13.508 12.3416C13.3497 12.4916 13.133 12.5832 12.9163 12.5832Z" fill="#E75B00"/>
<path d="M7.08333 15.5C6.975 15.5 6.86667 15.475 6.76667 15.4333C6.66667 15.3917 6.575 15.3333 6.49167 15.2583C6.34167 15.1 6.25 14.8833 6.25 14.6667C6.25 14.5583 6.275 14.45 6.31667 14.35C6.35833 14.2417 6.41667 14.15 6.49167 14.075C6.8 13.7667 7.36667 13.7667 7.675 14.075C7.825 14.2333 7.91667 14.45 7.91667 14.6667C7.91667 14.8833 7.825 15.1 7.675 15.2583C7.51667 15.4083 7.3 15.5 7.08333 15.5Z" fill="#E75B00"/>
<path d="M10.0003 15.5C9.78366 15.5 9.56699 15.4083 9.40866 15.2583C9.25866 15.1 9.16699 14.8833 9.16699 14.6667C9.16699 14.5583 9.19199 14.45 9.23366 14.35C9.27533 14.2417 9.33366 14.15 9.40866 14.075C9.71699 13.7667 10.2837 13.7667 10.592 14.075C10.667 14.15 10.7253 14.2417 10.767 14.35C10.8087 14.45 10.8337 14.5583 10.8337 14.6667C10.8337 14.8833 10.742 15.1 10.592 15.2583C10.4337 15.4083 10.217 15.5 10.0003 15.5Z" fill="#E75B00"/>
<path d="M12.9163 15.4999C12.6997 15.4999 12.483 15.4083 12.3247 15.2583C12.2497 15.1833 12.1913 15.0916 12.1497 14.9833C12.108 14.8833 12.083 14.7749 12.083 14.6666C12.083 14.5583 12.108 14.4499 12.1497 14.3499C12.1913 14.2416 12.2497 14.1499 12.3247 14.0749C12.5163 13.8833 12.808 13.7916 13.0747 13.8499C13.133 13.8583 13.183 13.8749 13.233 13.8999C13.283 13.9166 13.333 13.9416 13.383 13.9749C13.4247 13.9999 13.4663 14.0416 13.508 14.0749C13.658 14.2333 13.7497 14.4499 13.7497 14.6666C13.7497 14.8833 13.658 15.0999 13.508 15.2583C13.3497 15.4083 13.133 15.4999 12.9163 15.4999Z" fill="#E75B00"/>
<path d="M17.0837 8.69995H2.91699C2.57533 8.69995 2.29199 8.41662 2.29199 8.07495C2.29199 7.73328 2.57533 7.44995 2.91699 7.44995H17.0837C17.4253 7.44995 17.7087 7.73328 17.7087 8.07495C17.7087 8.41662 17.4253 8.69995 17.0837 8.69995Z" fill="#E75B00"/>
<path d="M13.3333 19.4584H6.66667C3.625 19.4584 1.875 17.7084 1.875 14.6667V7.58342C1.875 4.54175 3.625 2.79175 6.66667 2.79175H13.3333C16.375 2.79175 18.125 4.54175 18.125 7.58342V14.6667C18.125 17.7084 16.375 19.4584 13.3333 19.4584ZM6.66667 4.04175C4.28333 4.04175 3.125 5.20008 3.125 7.58342V14.6667C3.125 17.0501 4.28333 18.2084 6.66667 18.2084H13.3333C15.7167 18.2084 16.875 17.0501 16.875 14.6667V7.58342C16.875 5.20008 15.7167 4.04175 13.3333 4.04175H6.66667Z" fill="#E75B00"/>
</svg>
