<svg width="20" height="21" viewBox="0 0 20 21" fill="none" xmlns="http://www.w3.org/2000/svg">
<path d="M15.1587 15.2917H6.28365C5.45865 15.2917 4.66699 14.9418 4.10865 14.3334C3.55032 13.7251 3.26699 12.9084 3.33366 12.0834L4.02533 3.78342C4.05033 3.52508 3.95865 3.27509 3.78365 3.08342C3.60865 2.89175 3.36699 2.79175 3.10866 2.79175H1.66699C1.32533 2.79175 1.04199 2.50841 1.04199 2.16675C1.04199 1.82508 1.32533 1.54175 1.66699 1.54175H3.117C3.72533 1.54175 4.30032 1.80008 4.70865 2.24174C4.93365 2.49174 5.10032 2.78342 5.19199 3.10842H15.6003C16.442 3.10842 17.217 3.44175 17.7837 4.04175C18.342 4.65008 18.6253 5.44175 18.5587 6.28342L18.1087 12.5334C18.017 14.0584 16.6837 15.2917 15.1587 15.2917ZM5.23366 4.35008L4.58366 12.1834C4.54199 12.6667 4.70032 13.1251 5.02532 13.4834C5.35032 13.8417 5.80032 14.0334 6.28365 14.0334H15.1587C16.0253 14.0334 16.8087 13.3001 16.8753 12.4334L17.3253 6.18342C17.3587 5.69175 17.2003 5.22509 16.8753 4.88342C16.5503 4.53342 16.1003 4.34174 15.6087 4.34174H5.23366V4.35008Z" fill="#E75B00"/>
<path d="M13.5417 19.4583C12.625 19.4583 11.875 18.7083 11.875 17.7917C11.875 16.875 12.625 16.125 13.5417 16.125C14.4583 16.125 15.2083 16.875 15.2083 17.7917C15.2083 18.7083 14.4583 19.4583 13.5417 19.4583ZM13.5417 17.375C13.3083 17.375 13.125 17.5583 13.125 17.7917C13.125 18.025 13.3083 18.2083 13.5417 18.2083C13.775 18.2083 13.9583 18.025 13.9583 17.7917C13.9583 17.5583 13.775 17.375 13.5417 17.375Z" fill="#E75B00"/>
<path d="M6.87467 19.4583C5.95801 19.4583 5.20801 18.7083 5.20801 17.7917C5.20801 16.875 5.95801 16.125 6.87467 16.125C7.79134 16.125 8.54134 16.875 8.54134 17.7917C8.54134 18.7083 7.79134 19.4583 6.87467 19.4583ZM6.87467 17.375C6.64134 17.375 6.45801 17.5583 6.45801 17.7917C6.45801 18.025 6.64134 18.2083 6.87467 18.2083C7.10801 18.2083 7.29134 18.025 7.29134 17.7917C7.29134 17.5583 7.10801 17.375 6.87467 17.375Z" fill="#E75B00"/>
<path d="M17.5 7.79175H7.5C7.15833 7.79175 6.875 7.50841 6.875 7.16675C6.875 6.82508 7.15833 6.54175 7.5 6.54175H17.5C17.8417 6.54175 18.125 6.82508 18.125 7.16675C18.125 7.50841 17.8417 7.79175 17.5 7.79175Z" fill="#E75B00"/>
</svg>
