<svg width="20" height="21" viewBox="0 0 20 21" fill="none" xmlns="http://www.w3.org/2000/svg">
<path d="M10.8337 12.7917H1.66699C1.32533 12.7917 1.04199 12.5084 1.04199 12.1667V5.50008C1.04199 3.31675 2.81699 1.54175 5.00033 1.54175H12.5003C12.842 1.54175 13.1253 1.82508 13.1253 2.16675V10.5001C13.1253 11.7667 12.1003 12.7917 10.8337 12.7917ZM2.29199 11.5417H10.8337C11.4087 11.5417 11.8753 11.0751 11.8753 10.5001V2.79175H5.00033C3.50866 2.79175 2.29199 4.00841 2.29199 5.50008V11.5417Z" fill="#E75B00"/>
<path d="M15.8337 17.7917H15.0003C14.6587 17.7917 14.3753 17.5084 14.3753 17.1667C14.3753 16.5917 13.9087 16.1251 13.3337 16.1251C12.7587 16.1251 12.292 16.5917 12.292 17.1667C12.292 17.5084 12.0087 17.7917 11.667 17.7917H8.33366C7.99199 17.7917 7.70866 17.5084 7.70866 17.1667C7.70866 16.5917 7.24199 16.1251 6.66699 16.1251C6.09199 16.1251 5.62533 16.5917 5.62533 17.1667C5.62533 17.5084 5.34199 17.7917 5.00033 17.7917H4.16699C2.44199 17.7917 1.04199 16.3917 1.04199 14.6667V12.1667C1.04199 11.8251 1.32533 11.5417 1.66699 11.5417H10.8337C11.4087 11.5417 11.8753 11.0751 11.8753 10.5001V4.66675C11.8753 4.32508 12.1587 4.04175 12.5003 4.04175H14.0337C14.8587 4.04175 15.617 4.48343 16.0253 5.20009L17.4503 7.69175C17.5587 7.88342 17.5587 8.12508 17.4503 8.31675C17.342 8.50842 17.1337 8.62508 16.9087 8.62508H15.8337C15.717 8.62508 15.6253 8.71675 15.6253 8.83341V11.3334C15.6253 11.4501 15.717 11.5417 15.8337 11.5417H18.3337C18.6753 11.5417 18.9587 11.8251 18.9587 12.1667V14.6667C18.9587 16.3917 17.5587 17.7917 15.8337 17.7917ZM15.542 16.5417H15.8337C16.867 16.5417 17.7087 15.7001 17.7087 14.6667V12.7917H15.8337C15.0337 12.7917 14.3753 12.1334 14.3753 11.3334V8.83341C14.3753 8.03341 15.0253 7.37508 15.8337 7.37508L14.942 5.81675C14.7587 5.49175 14.4087 5.29175 14.0337 5.29175H13.1253V10.5001C13.1253 11.7667 12.1003 12.7917 10.8337 12.7917H2.29199V14.6667C2.29199 15.7001 3.13366 16.5417 4.16699 16.5417H4.45866C4.73366 15.5834 5.61699 14.8751 6.66699 14.8751C7.71699 14.8751 8.60032 15.5834 8.87532 16.5417H11.1336C11.4086 15.5834 12.292 14.8751 13.342 14.8751C14.392 14.8751 15.267 15.5834 15.542 16.5417Z" fill="#E75B00"/>
<path d="M6.66667 19.4583C5.4 19.4583 4.375 18.4333 4.375 17.1667C4.375 15.9 5.4 14.875 6.66667 14.875C7.93333 14.875 8.95833 15.9 8.95833 17.1667C8.95833 18.4333 7.93333 19.4583 6.66667 19.4583ZM6.66667 16.125C6.09167 16.125 5.625 16.5917 5.625 17.1667C5.625 17.7417 6.09167 18.2083 6.66667 18.2083C7.24167 18.2083 7.70833 17.7417 7.70833 17.1667C7.70833 16.5917 7.24167 16.125 6.66667 16.125Z" fill="#E75B00"/>
<path d="M13.3337 19.4583C12.067 19.4583 11.042 18.4333 11.042 17.1667C11.042 15.9 12.067 14.875 13.3337 14.875C14.6003 14.875 15.6253 15.9 15.6253 17.1667C15.6253 18.4333 14.6003 19.4583 13.3337 19.4583ZM13.3337 16.125C12.7587 16.125 12.292 16.5917 12.292 17.1667C12.292 17.7417 12.7587 18.2083 13.3337 18.2083C13.9087 18.2083 14.3753 17.7417 14.3753 17.1667C14.3753 16.5917 13.9087 16.125 13.3337 16.125Z" fill="#E75B00"/>
<path d="M18.3333 12.7917H15.8333C15.0333 12.7917 14.375 12.1333 14.375 11.3333V8.83333C14.375 8.03333 15.0333 7.375 15.8333 7.375H16.9083C17.1333 7.375 17.3417 7.49167 17.45 7.69167L18.875 10.1917C18.925 10.2833 18.9583 10.3917 18.9583 10.5V12.1667C18.9583 12.5083 18.675 12.7917 18.3333 12.7917ZM15.8333 8.625C15.7167 8.625 15.625 8.71667 15.625 8.83333V11.3333C15.625 11.45 15.7167 11.5417 15.8333 11.5417H17.7083V10.6667L16.5417 8.625H15.8333Z" fill="#E75B00"/>
</svg>
