<svg width="20" height="20" viewBox="0 0 20 20" fill="none" xmlns="http://www.w3.org/2000/svg">
<path d="M3.68783 8.33333C3.88227 7.83333 3.91352 7.38889 3.78158 7C3.64963 6.61111 3.42394 6.22222 3.10449 5.83333C2.64616 5.27778 2.34408 4.75347 2.19824 4.26042C2.05241 3.76736 2.0281 3.18056 2.12533 2.5H3.75033C3.63921 3.02778 3.62185 3.45833 3.69824 3.79167C3.77463 4.125 3.97255 4.48611 4.29199 4.875C4.81977 5.51389 5.15658 6.07986 5.30241 6.57292C5.44824 7.06597 5.45171 7.65278 5.31283 8.33333H3.68783ZM7.02116 8.33333C7.2156 7.83333 7.25033 7.38889 7.12533 7C7.00033 6.61111 6.7781 6.22222 6.45866 5.83333C6.00033 5.27778 5.69477 4.75347 5.54199 4.26042C5.38921 3.76736 5.36144 3.18056 5.45866 2.5H7.08366C6.97255 3.02778 6.95519 3.45833 7.03158 3.79167C7.10796 4.125 7.30588 4.48611 7.62533 4.875C8.1531 5.51389 8.48991 6.07986 8.63574 6.57292C8.78158 7.06597 8.78505 7.65278 8.64616 8.33333H7.02116ZM10.3545 8.33333C10.5489 7.83333 10.5837 7.38889 10.4587 7C10.3337 6.61111 10.1114 6.22222 9.79199 5.83333C9.33366 5.27778 9.0281 4.75347 8.87533 4.26042C8.72255 3.76736 8.69477 3.18056 8.79199 2.5H10.417C10.3059 3.02778 10.2885 3.45833 10.3649 3.79167C10.4413 4.125 10.6392 4.48611 10.9587 4.875C11.4864 5.51389 11.8232 6.07986 11.9691 6.57292C12.1149 7.06597 12.1184 7.65278 11.9795 8.33333H10.3545ZM4.16699 16.6667C3.47255 16.6667 2.88227 16.4236 2.39616 15.9375C1.91005 15.4514 1.66699 14.8611 1.66699 14.1667V10H13.3545C13.4239 9.52778 13.6114 9.11458 13.917 8.76042C14.2225 8.40625 14.5975 8.15278 15.042 8L18.8962 6.70833L19.417 8.29167L15.5628 9.58333C15.3962 9.63889 15.2607 9.73958 15.1566 9.88542C15.0524 10.0312 15.0003 10.1944 15.0003 10.375V14.1667C15.0003 14.8611 14.7573 15.4514 14.2712 15.9375C13.785 16.4236 13.1948 16.6667 12.5003 16.6667H4.16699ZM4.16699 15H12.5003C12.7364 15 12.9344 14.9201 13.0941 14.7604C13.2538 14.6007 13.3337 14.4028 13.3337 14.1667V11.6667H3.33366V14.1667C3.33366 14.4028 3.41352 14.6007 3.57324 14.7604C3.73296 14.9201 3.93088 15 4.16699 15Z" fill="white"/>
</svg>
