<svg width="20" height="20" viewBox="0 0 20 20" fill="none" xmlns="http://www.w3.org/2000/svg">
<path d="M10.0003 18.3334C8.98644 18.2084 7.97949 17.934 6.97949 17.5104C5.97949 17.0868 5.08713 16.4792 4.30241 15.6875C3.51769 14.8959 2.88227 13.8959 2.39616 12.6875C1.91005 11.4792 1.66699 10.0278 1.66699 8.33335V7.50002H2.50033C3.20866 7.50002 3.93783 7.5903 4.68783 7.77085C5.43783 7.95141 6.13921 8.22224 6.79199 8.58335C6.95866 7.38891 7.33713 6.16322 7.92741 4.90627C8.51769 3.64933 9.20866 2.56946 10.0003 1.66669C10.792 2.56946 11.483 3.64933 12.0732 4.90627C12.6635 6.16322 13.042 7.38891 13.2087 8.58335C13.8614 8.22224 14.5628 7.95141 15.3128 7.77085C16.0628 7.5903 16.792 7.50002 17.5003 7.50002H18.3337V8.33335C18.3337 10.0278 18.0906 11.4792 17.6045 12.6875C17.1184 13.8959 16.483 14.8959 15.6982 15.6875C14.9135 16.4792 14.0246 17.0868 13.0316 17.5104C12.0385 17.934 11.0281 18.2084 10.0003 18.3334ZM9.95866 16.625C9.80588 14.3195 9.12185 12.5764 7.90658 11.3959C6.6913 10.2153 5.18088 9.48613 3.37533 9.20835C3.5281 11.5834 4.23296 13.3542 5.48991 14.5209C6.74685 15.6875 8.23644 16.3889 9.95866 16.625ZM10.0003 11.3334C10.2087 11.0278 10.4621 10.7118 10.7607 10.3854C11.0594 10.059 11.3475 9.7778 11.6253 9.54169C11.5975 8.75002 11.4413 7.92363 11.1566 7.06252C10.8719 6.20141 10.4864 5.36113 10.0003 4.54169C9.51422 5.36113 9.1288 6.20141 8.84408 7.06252C8.55935 7.92363 8.4031 8.75002 8.37533 9.54169C8.6531 9.7778 8.94477 10.059 9.25033 10.3854C9.55588 10.7118 9.80588 11.0278 10.0003 11.3334ZM11.6253 16.25C12.1392 16.0834 12.6739 15.8403 13.2295 15.5209C13.785 15.2014 14.3024 14.7674 14.7816 14.2188C15.2607 13.6702 15.6705 12.9861 16.0107 12.1667C16.351 11.3472 16.5559 10.3611 16.6253 9.20835C15.3198 9.4028 14.1739 9.83683 13.1878 10.5104C12.2017 11.184 11.4448 12.0417 10.917 13.0834C11.0837 13.5278 11.226 14.0139 11.3441 14.5417C11.4621 15.0695 11.5559 15.6389 11.6253 16.25Z" fill="white"/>
</svg>
