<svg width="20" height="20" viewBox="0 0 20 20" fill="none" xmlns="http://www.w3.org/2000/svg">
<path d="M10.0003 7.50002C9.19477 7.50002 8.50727 7.2153 7.93783 6.64585C7.36838 6.07641 7.08366 5.38891 7.08366 4.58335C7.08366 3.7778 7.36838 3.0903 7.93783 2.52085C8.50727 1.95141 9.19477 1.66669 10.0003 1.66669C10.8059 1.66669 11.4934 1.95141 12.0628 2.52085C12.6323 3.0903 12.917 3.7778 12.917 4.58335C12.917 5.38891 12.6323 6.07641 12.0628 6.64585C11.4934 7.2153 10.8059 7.50002 10.0003 7.50002ZM10.0003 5.83335C10.3475 5.83335 10.6427 5.71183 10.8857 5.46877C11.1288 5.22572 11.2503 4.93058 11.2503 4.58335C11.2503 4.23613 11.1288 3.94099 10.8857 3.69794C10.6427 3.45488 10.3475 3.33335 10.0003 3.33335C9.6531 3.33335 9.35796 3.45488 9.11491 3.69794C8.87185 3.94099 8.75033 4.23613 8.75033 4.58335C8.75033 4.93058 8.87185 5.22572 9.11491 5.46877C9.35796 5.71183 9.6531 5.83335 10.0003 5.83335ZM10.0003 18.3334L5.00033 13.3334C4.72255 13.0556 4.51421 12.7431 4.37533 12.3959C4.23644 12.0486 4.16699 11.6667 4.16699 11.25C4.16699 10.4306 4.44824 9.7396 5.01074 9.1771C5.57324 8.6146 6.26421 8.33335 7.08366 8.33335C7.48644 8.33335 7.85796 8.40974 8.19824 8.56252C8.53852 8.7153 8.84755 8.93058 9.12533 9.20835L10.0003 10.0834L10.8753 9.20835C11.1531 8.93058 11.4621 8.7153 11.8024 8.56252C12.1427 8.40974 12.5142 8.33335 12.917 8.33335C13.7364 8.33335 14.4274 8.6146 14.9899 9.1771C15.5524 9.7396 15.8337 10.4306 15.8337 11.25C15.8337 11.6667 15.7642 12.0486 15.6253 12.3959C15.4864 12.7431 15.2781 13.0556 15.0003 13.3334L10.0003 18.3334ZM10.0003 15.9584L13.792 12.1667C13.917 12.0417 14.0107 11.8993 14.0732 11.7396C14.1357 11.5799 14.167 11.4167 14.167 11.25C14.167 10.9167 14.0489 10.625 13.8128 10.375C13.5767 10.125 13.2781 10 12.917 10C12.7503 10 12.601 10.0243 12.4691 10.0729C12.3371 10.1215 12.2087 10.2084 12.0837 10.3334L10.0003 12.4167L7.91699 10.3334C7.83366 10.25 7.72602 10.1736 7.59408 10.1042C7.46213 10.0347 7.29199 10 7.08366 10C6.72255 10 6.42394 10.125 6.18783 10.375C5.95171 10.625 5.83366 10.9167 5.83366 11.25C5.83366 11.4167 5.86838 11.5729 5.93783 11.7188C6.00727 11.8646 6.09755 12 6.20866 12.125L10.0003 15.9584Z" fill="white"/>
</svg>
