<svg width="20" height="20" viewBox="0 0 20 20" fill="none" xmlns="http://www.w3.org/2000/svg">
<path d="M5.83301 18.3334V10.7084C5.12467 10.5139 4.53092 10.125 4.05176 9.54169C3.57259 8.95835 3.33301 8.2778 3.33301 7.50002V1.66669H4.99967V7.50002H5.83301V1.66669H7.49967V7.50002H8.33301V1.66669H9.99967V7.50002C9.99967 8.2778 9.76009 8.95835 9.28092 9.54169C8.80176 10.125 8.20801 10.5139 7.49967 10.7084V18.3334H5.83301ZM14.1663 18.3334V11.6667H11.6663V5.83335C11.6663 4.68058 12.0726 3.69794 12.8851 2.88544C13.6976 2.07294 14.6802 1.66669 15.833 1.66669V18.3334H14.1663Z" fill="white"/>
</svg>
